<svg width="606" height="153" viewBox="0 0 606 153" fill="none" xmlns="http://www.w3.org/2000/svg">
<path d="M184.5 123.312C165.125 123.312 152.625 110.188 152.625 88.9375C152.625 67.8125 165.062 54.375 184.375 54.375C197.375 54.375 208.438 61.0625 211.625 70.375C212.125 71.6875 212.438 73 212.438 74.125C212.438 78 209.5 80.375 205.75 80.375C202.625 80.375 200.75 79.0625 198.938 75.9375C195.625 69.875 191.25 67 184.812 67C174.812 67 168.438 75.3125 168.438 88.875C168.438 102.625 174.875 110.75 184.75 110.75C191.625 110.75 195.875 107.562 198.875 102.25C201 98.75 202.688 97.4375 206.062 97.4375C209.75 97.4375 212.625 99.9375 212.625 103.812C212.625 105 212.312 106.312 211.688 107.812C208 116.875 197 123.312 184.5 123.312ZM252.438 123.312C233 123.312 220.375 110.375 220.375 88.875C220.375 67.5 233.125 54.375 252.438 54.375C271.75 54.375 284.5 67.4375 284.5 88.875C284.5 110.375 271.875 123.312 252.438 123.312ZM252.438 111C262.312 111 268.688 103 268.688 88.875C268.688 74.8125 262.312 66.75 252.438 66.75C242.625 66.75 236.188 74.8125 236.188 88.875C236.188 103 242.562 111 252.438 111ZM302.25 146.625C295.25 146.625 291.438 144 291.438 139.25C291.438 136.062 293.688 134 297.312 134C298.625 134 299.25 134.062 300.688 134.062C304.188 134.062 307.812 132.25 310.125 126.438L311.25 123.188L289.562 66.125C289 64.5625 288.688 62.9375 288.688 61.6875C288.688 57.4375 292.125 54.4375 296.688 54.4375C300.625 54.4375 302.812 56.1875 304.125 60.5625L319.938 108.75H320.188L336 60.5C337.312 56.25 339.562 54.4375 343.5 54.4375C347.938 54.4375 351.062 57.375 351.062 61.5C351.062 62.75 350.75 64.5 350.188 66L328.375 124.375C322.375 140.875 315.5 146.625 302.25 146.625ZM367.375 123.25C362.812 123.25 359.625 120.312 359.625 115.062V62.3125C359.625 57.5 362.438 54.4375 367.062 54.4375C371.625 54.4375 374.75 57.5 374.75 62.3125V66.9375H375.062C378.625 59.0625 385.5 54.5 395.688 54.5C410.312 54.5 418.625 63.875 418.625 79.1875V115.062C418.625 120.312 415.438 123.25 410.875 123.25C406.312 123.25 403.062 120.312 403.062 115.062V82.3125C403.062 72.9375 398.688 67.6875 389.812 67.6875C380.875 67.6875 375.188 74.125 375.188 83.625V115.062C375.188 120.312 371.938 123.25 367.375 123.25ZM456.688 123.312C442.688 123.312 432.875 117.938 429.688 110C429.25 108.875 429.062 107.875 429.062 106.938C429.062 103.188 431.812 100.812 435.562 100.812C438.125 100.812 440.312 102 442.312 104.625C445.812 109.688 449.812 111.938 457.25 111.938C464.5 111.938 469.312 108.875 469.312 103.875C469.312 99.875 466.812 97.6875 460 96.125L449.25 93.6875C436.312 90.75 429.938 84.375 429.938 74.75C429.938 62.4375 440.562 54.375 456.938 54.375C469.688 54.375 479.562 60.625 481.625 68.25C481.812 69.0625 481.938 69.8125 481.938 70.5625C481.938 73.8125 479.875 76.125 475.938 76.125C473.688 76.125 471.438 75.3125 470 73.25C466.938 68.6875 463.125 65.8125 456.562 65.8125C449.75 65.8125 445.062 69.125 445.062 73.875C445.062 77.75 447.938 80.375 454.812 81.9375L465.375 84.25C479.375 87.4375 484.938 92.5 484.938 102.312C484.938 115 473.562 123.312 456.688 123.312ZM499.875 123.062C494.938 123.062 491.75 120.188 491.75 115.625C491.75 114.375 492.062 112.625 492.812 110.688L519 39.5C521.188 33.5 524.812 30.75 530.688 30.75C536.625 30.75 540.25 33.375 542.5 39.4375L568.75 110.688C569.5 112.75 569.812 114.188 569.812 115.625C569.812 120 566.438 123.062 561.75 123.062C557.375 123.062 554.938 121.062 553.5 116.25L547.562 99H513.875L507.938 116.125C506.438 121 504.062 123.062 499.875 123.062ZM517.688 86.25H543.625L530.812 47.75H530.375L517.688 86.25ZM589.625 123.062C584.625 123.062 581.562 120 581.562 114.688V39.125C581.562 33.8125 584.625 30.75 589.625 30.75C594.688 30.75 597.688 33.8125 597.688 39.125V114.688C597.688 120 594.688 123.062 589.625 123.062Z" fill="black"/>
<path fill-rule="evenodd" clip-rule="evenodd" d="M92.6655 100.33C115.607 97.5585 133.384 78.022 133.384 54.3333C133.384 28.7441 112.64 8 87.0505 8C61.4613 8 40.7172 28.7441 40.7172 54.3333C40.7172 54.4457 40.7176 54.5579 40.7184 54.6701C17.7772 57.4415 0 76.978 0 100.667C0 126.256 20.7441 147 46.3333 147C71.9225 147 92.6667 126.256 92.6667 100.667C92.6667 100.554 92.6663 100.442 92.6655 100.33Z" fill="#0A88FE"/>
<path fill-rule="evenodd" clip-rule="evenodd" d="M40.7185 54.6701C42.5591 54.4477 44.4329 54.3333 46.3335 54.3333C71.8103 54.3333 92.4845 74.8957 92.6656 100.33C90.825 100.552 88.9512 100.667 87.0506 100.667C61.5738 100.667 40.8996 80.1043 40.7185 54.6701Z" fill="#006ACD"/>
</svg>
